<?xml version="1.0" encoding="utf-8"?>
<?xml-stylesheet type="text/xsl" href="rss1.xsl"?>
<rss version="2.0" xmlns:atom="http://www.w3.org/2005/Atom" xmlns:content="http://purl.org/rss/1.0/modules/content/" xmlns:dc="http://purl.org/dc/elements/1.1/" xmlns:media="http://search.yahoo.com/mrss/">
<channel>
 <title>Getty</title>
 <link>http://www.gettyimg.com/</link>
 <atom:link href="http://www.gettyimg.com/" rel="self" type="application/rss+xml" />

 
                <item>
                <title><![CDATA[【DVD】DVD9 - BIONICLE 3: Web of Shadows (2005) (DVD9 NTSC R1)]]></title>
                <link><![CDATA[https://sharemania.us/threads/bionicle-3-web-of-shadows-2005-dvd9-ntsc-r1.234106/]]></link>
                <description><![CDATA[<article>
<blockquote class="messageText SelectQuoteContainer ugc baseHtml">
<img src="https://images.45worlds.com/f/dv/bionicle-3-web-of-shadows-dv.jpg" class="bbCodeImage LbImage" alt="[​IMG]" data-url="https://images.45worlds.com/f/dv/bionicle-3-web-of-shadows-dv.jpg" style=""><br>
<img src="https://images.45worlds.com/f/dv/bionicle-3-web-of-shadows-2-dv.jpg" class="bbCodeImage LbImage" alt="[​IMG]" data-url="https://images.45worlds.com/f/dv/bionicle-3-web-of-shadows-2-dv.jpg" style=""><br>
<br>
<b>Release Date</b>: October 11, 2005<br>
<br>
<div class="ToggleTriggerAnchor bbCodeSpoilerContainer">
<button type="button" class="button bbCodeSpoilerButton ToggleTrigger Tooltip JsOnly" data-target="> .SpoilerTarget"><span>Spoiler: <span class="SpoilerTitle">Media Information</span></span></button>
<div class="SpoilerTarget bbCodeSpoilerText">General<br>
Complete name : BIONICLE_3_WEB_OF_SHADOWS.iso<br>
Format : ISO 9660 / DVD Video<br>
Format profile : Program<br>
File size : 5.64 GiB<br>
Duration : 1 h 15 min<br>
Overall bit rate mode : Variable<br>
Overall bit rate : 10.7 Mb/s<br>
Frame rate : 29.970 FPS<br>
Movie name : BIONICLE_3_WEB_OF_SHADOWS<br>
Encoded date : 2005-08-15 15:07:25.00+56:00<br>
<br>
Video<br>
ID : 224 (0xE0)<br>
Format : MPEG Video<br>
Format version : Version 2<br>
Format profile : Main@Main<br>
Format settings : CustomMatrix / BVOP<br>
Format settings, BVOP : Yes<br>
Format settings, Matrix : Custom<br>
Format settings, picture structure : Frame<br>
Duration : 1 h 15 min<br>
Bit rate mode : Variable<br>
Bit rate : 9 096 kb/s<br>
Width : 720 pixels<br>
Height : 480 pixels<br>
Display aspect ratio : 16:9<br>
Frame rate : 29.970 (29970/1000) FPS<br>
Original frame rate : 29.970 (30000/1001) FPS<br>
Standard : NTSC<br>
Color space : YUV<br>
Chroma subsampling : 4:2:0<br>
Bit depth : 8 bits<br>
Scan type : Interlaced<br>
Compression mode : Lossy<br>
Bits/(Pixel*Frame) : 0.878<br>
Time code of first frame : 01:00:00:00<br>
Time code source : Group of pictures header<br>
GOP, Open/Closed : Open<br>
GOP, Open/Closed of first frame : Closed<br>
Stream size : 4.78 GiB (85%)<br>
Color primaries : BT.470 System M<br>
Transfer characteristics : BT.470 System M<br>
Matrix coefficients : BT.470 System B/G<br>
Source : VIDEO_TS/VTS_01_0.IFO<br>
<br>
Audio #1<br>
ID : 189 (0xBD)-128 (0x80)<br>
Format : AC-3<br>
Format/Info : Audio Coding 3<br>
Commercial name : Dolby Digital<br>
Muxing mode : DVD-Video<br>
Duration : 1 h 15 min<br>
Bit rate mode : Constant<br>
Bit rate : 448 kb/s<br>
Channel(s) : 6 channels<br>
Channel layout : L R C LFE Ls Rs<br>
Sampling rate : 48.0 kHz<br>
Frame rate : 31.250 FPS (1536 SPF)<br>
Compression mode : Lossy<br>
Stream size : 241 MiB (4%)<br>
Language : English<br>
Service kind : Complete Main<br>
Source : VIDEO_TS/VTS_01_0.IFO<br>
<br>
Audio #2<br>
ID : 189 (0xBD)-137 (0x89)<br>
Format : DTS<br>
Format/Info : Digital Theater Systems<br>
Muxing mode : DVD-Video<br>
Duration : 1 h 15 min<br>
Bit rate mode : Constant<br>
Bit rate : 754 kb/s<br>
Channel(s) : 6 channels<br>
Channel layout : C L R Ls Rs LFE<br>
Sampling rate : 48.0 kHz<br>
Frame rate : 93.750 FPS (512 SPF)<br>
Bit depth : 24 bits<br>
Compression mode : Lossy<br>
Stream size : 406 MiB (7%)<br>
Language : English<br>
Source : VIDEO_TS/VTS_01_0.IFO<br>
<br>
Text<br>
ID : 189 (0xBD)-32 (0x20)<br>
Format : RLE<br>
Format/Info : Run-length encoding<br>
Duration : 1 h 15 min<br>
Bit depth : 2 bits<br>
Language : English<br>
Source : VIDEO_TS/VTS_01_0.IFO<br>
<br>
Menu<br>
Duration : 1 h 15 min<br>
00:00:00.000 : Chapter 1<br>
00:07:22.900 : Chapter 2<br>
00:14:17.700 : Chapter 3<br>
00:19:56.867 : Chapter 4<br>
00:26:38.600 : Chapter 5<br>
00:34:59.867 : Chapter 6<br>
00:41:26.733 : Chapter 7<br>
00:45:47.467 : Chapter 8<br>
00:51:13.800 : Chapter 9<br>
00:59:17.500 : Chapter 10<br>
01:06:06.933 : Chapter 11<br>
01:15:12.467 : Chapter 12<br>
List (Audio) : 0 / 1<br>
List (Subtitles 4/3) : 0<br>
List (Subtitles Wide) : 0<br>
List (Subtitles Letterbox) : 0<br>
List (Subtitles Pan&amp;Scan) : 0<br>
Source : VIDEO_TS/VTS_01_0.IFO</div>
</div>
<div class="messageTextEndMarker">&nbsp;</div>
</blockquote>
</article>]]></description>
                <author><![CDATA[Austin Zimmermann]]></author>
                </item>

                
                <item>
                <title><![CDATA[【DVD】DVD9 - BIONICLE: Mask of Light (2003) (DVD9 NTSC R1)]]></title>
                <link><![CDATA[https://sharemania.us/threads/bionicle-mask-of-light-2003-dvd9-ntsc-r1.234104/]]></link>
                <description><![CDATA[<article>
<blockquote class="messageText SelectQuoteContainer ugc baseHtml">
<img src="https://images.45worlds.com/f/dv/bionicle-mask-of-light-13-dv.jpg" class="bbCodeImage LbImage" alt="[​IMG]" data-url="https://images.45worlds.com/f/dv/bionicle-mask-of-light-13-dv.jpg" style=""><br>
<img src="https://images.45worlds.com/f/dv/bionicle-mask-of-light-miramax-dv.jpg" class="bbCodeImage LbImage" alt="[​IMG]" data-url="https://images.45worlds.com/f/dv/bionicle-mask-of-light-miramax-dv.jpg" style=""><br>
<br>
<b>Release Date</b>: September 16, 2003<br>
<br>
<div class="ToggleTriggerAnchor bbCodeSpoilerContainer">
<button type="button" class="button bbCodeSpoilerButton ToggleTrigger Tooltip JsOnly" data-target="> .SpoilerTarget"><span>Spoiler: <span class="SpoilerTitle">Media Information</span></span></button>
<div class="SpoilerTarget bbCodeSpoilerText">General<br>
Complete name : BIONICLE_MASK_OF_LIGHT.iso<br>
Format : ISO 9660 / DVD Video<br>
Format profile : Program<br>
File size : 5.34 GiB<br>
Duration : 1 h 14 min<br>
Overall bit rate mode : Variable<br>
Overall bit rate : 10.3 Mb/s<br>
Frame rate : 29.970 FPS<br>
Movie name : BIONICLE_MASK_OF_LIGHT<br>
Encoded date : 2003-08-12 17:23:53.00+56:00<br>
<br>
Video<br>
ID : 224 (0xE0)<br>
Format : MPEG Video<br>
Format version : Version 2<br>
Format profile : Main@Main<br>
Format settings : CustomMatrix / BVOP<br>
Format settings, BVOP : Yes<br>
Format settings, Matrix : Custom<br>
Format settings, picture structure : Frame<br>
Duration : 1 h 14 min<br>
Bit rate mode : Variable<br>
Bit rate : 8 471 kb/s<br>
Maximum bit rate : 9 800 kb/s<br>
Width : 720 pixels<br>
Height : 480 pixels<br>
Display aspect ratio : 16:9<br>
Frame rate : 29.970 (29970/1000) FPS<br>
Original frame rate : 29.970 (30000/1001) FPS<br>
Standard : NTSC<br>
Color space : YUV<br>
Chroma subsampling : 4:2:0<br>
Bit depth : 8 bits<br>
Scan type : Interlaced<br>
Scan order : Top Field First<br>
Compression mode : Lossy<br>
Bits/(Pixel*Frame) : 0.818<br>
Stream size : 4.39 GiB (82%)<br>
Source : VIDEO_TS/VTS_01_0.IFO<br>
<br>
Audio #1<br>
ID : 189 (0xBD)-128 (0x80)<br>
Format : AC-3<br>
Format/Info : Audio Coding 3<br>
Commercial name : Dolby Digital<br>
Muxing mode : DVD-Video<br>
Duration : 1 h 14 min<br>
Bit rate mode : Constant<br>
Bit rate : 448 kb/s<br>
Channel(s) : 6 channels<br>
Channel layout : L R C LFE Ls Rs<br>
Sampling rate : 48.0 kHz<br>
Frame rate : 31.250 FPS (1536 SPF)<br>
Compression mode : Lossy<br>
Stream size : 238 MiB (4%)<br>
Language : English<br>
Service kind : Complete Main<br>
Source : VIDEO_TS/VTS_01_0.IFO<br>
<br>
Audio #2<br>
ID : 189 (0xBD)-130 (0x82)<br>
Format : AC-3<br>
Format/Info : Audio Coding 3<br>
Commercial name : Dolby Digital<br>
Muxing mode : DVD-Video<br>
Duration : 1 h 14 min<br>
Bit rate mode : Constant<br>
Bit rate : 192 kb/s<br>
Channel(s) : 6 channels<br>
Channel(s)_Original : 2 channels<br>
ChannelLayout_Original : L R<br>
Sampling rate : 48.0 kHz<br>
Frame rate : 31.250 FPS (1536 SPF)<br>
Compression mode : Lossy<br>
Stream size : 102 MiB (2%)<br>
Language : English<br>
Service kind : Complete Main<br>
Source : VIDEO_TS/VTS_01_0.IFO<br>
<br>
Audio #3<br>
ID : 189 (0xBD)-137 (0x89)<br>
Format : DTS<br>
Format/Info : Digital Theater Systems<br>
Muxing mode : DVD-Video<br>
Duration : 1 h 14 min<br>
Bit rate mode : Constant<br>
Bit rate : 754 kb/s<br>
Channel(s) : 2 channels<br>
Channel(s)_Original : 6 channels<br>
ChannelLayout_Original : C L R Ls Rs LFE<br>
Sampling rate : 48.0 kHz<br>
Frame rate : 93.750 FPS (512 SPF)<br>
Bit depth : 24 bits<br>
Compression mode : Lossy<br>
Stream size : 401 MiB (7%)<br>
Language : English<br>
Language, more info : Director's comments<br>
Source : VIDEO_TS/VTS_01_0.IFO<br>
<br>
Text #1<br>
ID : 189 (0xBD)-32 (0x20)<br>
Format : RLE<br>
Format/Info : Run-length encoding<br>
Muxing mode : DVD-Video<br>
Duration : 1 h 14 min<br>
Bit depth : 2 bits<br>
Delay relative to video : 1 s 868 ms<br>
Language : English<br>
Source : VIDEO_TS/VTS_01_0.IFO<br>
<br>
Text #2<br>
ID : 189 (0xBD)-33 (0x21)<br>
Format : RLE<br>
Format/Info : Run-length encoding<br>
Duration : 1 h 14 min<br>
Bit depth : 2 bits<br>
Language : English<br>
Source : VIDEO_TS/VTS_01_0.IFO<br>
<br>
Menu<br>
Duration : 1 h 14 min<br>
00:00:00.000 : Chapter 1<br>
00:06:44.533 : Chapter 2<br>
00:13:48.267 : Chapter 3<br>
00:18:26.867 : Chapter 4<br>
00:24:27.367 : Chapter 5<br>
00:32:26.667 : Chapter 6<br>
00:37:17.600 : Chapter 7<br>
00:43:29.867 : Chapter 8<br>
00:50:35.200 : Chapter 9<br>
00:54:46.233 : Chapter 10<br>
01:01:38.200 : Chapter 11<br>
01:06:29.467 : Chapter 12<br>
01:14:13.533 : Chapter 13<br>
List (Audio) : 0 / 1 / 2<br>
List (Subtitles 4/3) : 0 / 0<br>
List (Subtitles Wide) : 0 / 1<br>
List (Subtitles Letterbox) : 0 /<br>
List (Subtitles Pan&amp;Scan) : 0 / 0<br>
Source : VIDEO_TS/VTS_01_0.IFO</div>
</div><br>
<b>Download</b><br>
<div class="bbCodeBlock bbCodeVfcHH HiddenContent">
<div class="attribution type">Hidden Content:</div>
<blockquote>You must either reply or click 'Like' to see the hidden information contained here.</blockquote>
</div>
<div class="messageTextEndMarker">&nbsp;</div>
</blockquote>
</article>]]></description>
                <author><![CDATA[Austin Zimmermann]]></author>
                </item>

                
                <item>
                <title><![CDATA[【DVD】DVD9 - BIONICLE 2: Legends of Metru Nui (2004) (DVD9 NTSC R1)]]></title>
                <link><![CDATA[https://sharemania.us/threads/bionicle-2-legends-of-metru-nui-2004-dvd9-ntsc-r1.234105/]]></link>
                <description><![CDATA[<article>
<blockquote class="messageText SelectQuoteContainer ugc baseHtml">
<img src="https://images.45worlds.com/f/dv/bionicle-2-legends-of-metru-nui-11-dv.jpg" class="bbCodeImage LbImage" alt="[​IMG]" data-url="https://images.45worlds.com/f/dv/bionicle-2-legends-of-metru-nui-11-dv.jpg" style=""><br>
<img src="https://images.45worlds.com/f/dv/bionicle-2-legends-of-metru-nui-12-dv.jpg" class="bbCodeImage LbImage" alt="[​IMG]" data-url="https://images.45worlds.com/f/dv/bionicle-2-legends-of-metru-nui-12-dv.jpg" style=""><br>
<br>
<b>Release Date</b>: October 19, 2004<br>
<br>
<div class="ToggleTriggerAnchor bbCodeSpoilerContainer">
<button type="button" class="button bbCodeSpoilerButton ToggleTrigger Tooltip JsOnly" data-target="> .SpoilerTarget"><span>Spoiler: <span class="SpoilerTitle">Media Information</span></span></button>
<div class="SpoilerTarget bbCodeSpoilerText">General<br>
Complete name : BIONICLE_2.iso<br>
Format : ISO 9660 / DVD Video<br>
Format profile : Program<br>
File size : 5.62 GiB<br>
Duration : 1 h 15 min<br>
Overall bit rate mode : Variable<br>
Overall bit rate : 10.7 Mb/s<br>
Frame rate : 29.970 FPS<br>
Movie name : BIONICLE_2<br>
Encoded date : 2004-08-16 17:57:16.00+56:00<br>
<br>
Video<br>
ID : 224 (0xE0)<br>
Format : MPEG Video<br>
Format version : Version 2<br>
Format profile : Main@Main<br>
Format settings : CustomMatrix / BVOP<br>
Format settings, BVOP : Yes<br>
Format settings, Matrix : Custom<br>
Format settings, picture structure : Frame<br>
Duration : 1 h 15 min<br>
Bit rate mode : Variable<br>
Bit rate : 8 676 kb/s<br>
Maximum bit rate : 9 800 kb/s<br>
Width : 720 pixels<br>
Height : 480 pixels<br>
Display aspect ratio : 16:9<br>
Frame rate : 29.970 (29970/1000) FPS<br>
Original frame rate : 29.970 (30000/1001) FPS<br>
Standard : NTSC<br>
Color space : YUV<br>
Chroma subsampling : 4:2:0<br>
Bit depth : 8 bits<br>
Scan type : Interlaced<br>
Scan order : Top Field First<br>
Compression mode : Lossy<br>
Bits/(Pixel*Frame) : 0.838<br>
Stream size : 4.55 GiB (81%)<br>
Source : VIDEO_TS/VTS_01_0.IFO<br>
<br>
Audio #1<br>
ID : 189 (0xBD)-128 (0x80)<br>
Format : AC-3<br>
Format/Info : Audio Coding 3<br>
Commercial name : Dolby Digital<br>
Muxing mode : DVD-Video<br>
Duration : 1 h 15 min<br>
Bit rate mode : Constant<br>
Bit rate : 448 kb/s<br>
Channel(s) : 6 channels<br>
Channel layout : L R C LFE Ls Rs<br>
Sampling rate : 48.0 kHz<br>
Frame rate : 31.250 FPS (1536 SPF)<br>
Compression mode : Lossy<br>
Stream size : 241 MiB (4%)<br>
Language : English<br>
Service kind : Complete Main<br>
Source : VIDEO_TS/VTS_01_0.IFO<br>
<br>
Audio #2<br>
ID : 189 (0xBD)-130 (0x82)<br>
Format : AC-3<br>
Format/Info : Audio Coding 3<br>
Commercial name : Dolby Digital<br>
Muxing mode : DVD-Video<br>
Duration : 1 h 15 min<br>
Bit rate mode : Constant<br>
Bit rate : 384 kb/s<br>
Channel(s) : 6 channels<br>
Channel layout : L R C LFE Ls Rs<br>
Sampling rate : 48.0 kHz<br>
Frame rate : 31.250 FPS (1536 SPF)<br>
Compression mode : Lossy<br>
Stream size : 206 MiB (4%)<br>
Language : English<br>
Service kind : Complete Main<br>
Source : VIDEO_TS/VTS_01_0.IFO<br>
<br>
Audio #3<br>
ID : 189 (0xBD)-137 (0x89)<br>
Format : DTS<br>
Format/Info : Digital Theater Systems<br>
Muxing mode : DVD-Video<br>
Duration : 1 h 15 min<br>
Bit rate mode : Constant<br>
Bit rate : 754 kb/s<br>
Channel(s) : 6 channels<br>
Channel layout : C L R Ls Rs LFE<br>
Sampling rate : 48.0 kHz<br>
Frame rate : 93.750 FPS (512 SPF)<br>
Bit depth : 16 bits<br>
Compression mode : Lossy<br>
Stream size : 405 MiB (7%)<br>
Language : French<br>
Source : VIDEO_TS/VTS_01_0.IFO<br>
<br>
Text<br>
ID : 189 (0xBD)-32 (0x20)<br>
Format : RLE<br>
Format/Info : Run-length encoding<br>
Duration : 1 h 15 min<br>
Bit depth : 2 bits<br>
Language : English<br>
Source : VIDEO_TS/VTS_01_0.IFO<br>
<br>
Menu<br>
Duration : 1 h 15 min<br>
00:00:00.000 : Chapter 1<br>
00:10:36.067 : Chapter 2<br>
00:15:17.667 : Chapter 3<br>
00:23:04.633 : Chapter 4<br>
00:28:57.300 : Chapter 5<br>
00:33:39.933 : Chapter 6<br>
00:40:28.967 : Chapter 7<br>
00:45:15.267 : Chapter 8<br>
00:49:12.367 : Chapter 9<br>
00:54:58.500 : Chapter 10<br>
01:05:48.833 : Chapter 11<br>
01:15:06.633 : Chapter 12<br>
List (Audio) : 0 / 1 / 2<br>
List (Subtitles 4/3) : 0<br>
List (Subtitles Wide) : 0<br>
List (Subtitles Letterbox) : 0<br>
List (Subtitles Pan&amp;Scan) : 0<br>
Source : VIDEO_TS/VTS_01_0.IFO</div>
</div><br>
<b>Download</b><br>
<div class="bbCodeBlock bbCodeVfcHH HiddenContent">
<div class="attribution type">Hidden Content:</div>
<blockquote>You must either reply or click 'Like' to see the hidden information contained here.</blockquote>
</div>
<div class="messageTextEndMarker">&nbsp;</div>
</blockquote>
</article>]]></description>
                <author><![CDATA[Austin Zimmermann]]></author>
                </item>

                
                <item>
                <title><![CDATA[【DVD】DVD9 - BIONICLE: The Legend Reborn (2009) (DVD9 NTSC R1)]]></title>
                <link><![CDATA[https://sharemania.us/threads/bionicle-the-legend-reborn-2009-dvd9-ntsc-r1.234107/]]></link>
                <description><![CDATA[<article>
<blockquote class="messageText SelectQuoteContainer ugc baseHtml">
<img src="https://images.45worlds.com/f/dv/bionicle-the-legend-reborn-6-dv.jpg" class="bbCodeImage LbImage" alt="[​IMG]" data-url="https://images.45worlds.com/f/dv/bionicle-the-legend-reborn-6-dv.jpg" style=""><br>
<img src="https://images.45worlds.com/f/dv/bionicle-the-legend-reborn-universal-dv.jpg" class="bbCodeImage LbImage" alt="[​IMG]" data-url="https://images.45worlds.com/f/dv/bionicle-the-legend-reborn-universal-dv.jpg" style=""><br>
<br>
<b>Release Date</b>: September 15, 2009<br>
<br>
<div class="ToggleTriggerAnchor bbCodeSpoilerContainer">
<button type="button" class="button bbCodeSpoilerButton ToggleTrigger Tooltip JsOnly" data-target="> .SpoilerTarget"><span>Spoiler: <span class="SpoilerTitle">Media Information</span></span></button>
<div class="SpoilerTarget bbCodeSpoilerText">General<br>
Complete name : BIONICLE_THE_LEGEND_REBORN.iso<br>
Format : ISO 9660 / DVD Video<br>
Format profile : Program<br>
File size : 6.10 GiB<br>
Duration : 1 h 20 min<br>
Overall bit rate mode : Variable<br>
Overall bit rate : 10.8 Mb/s<br>
Frame rate : 29.970 FPS<br>
Movie name : BIONICLE_THE_LEGEND_REBORN<br>
Publisher : UNIVERSAL<br>
Encoded date : 2009-07-24 18:48:20.00+56:00<br>
<br>
Video<br>
ID : 224 (0xE0)<br>
Format : MPEG Video<br>
Format version : Version 2<br>
Format profile : Main@Main<br>
Format settings : CustomMatrix / BVOP<br>
Format settings, BVOP : Yes<br>
Format settings, Matrix : Custom<br>
Format settings, GOP : M=3, N=12<br>
Duration : 1 h 20 min<br>
Bit rate mode : Variable<br>
Bit rate : 9 180 kb/s<br>
Maximum bit rate : 9 800 kb/s<br>
Width : 720 pixels<br>
Height : 480 pixels<br>
Display aspect ratio : 16:9<br>
Frame rate : 29.970 (29970/1000) FPS<br>
Original frame rate : 29.970 (30000/1001) FPS<br>
Standard : NTSC<br>
Color space : YUV<br>
Chroma subsampling : 4:2:0<br>
Bit depth : 8 bits<br>
Compression mode : Lossy<br>
Bits/(Pixel*Frame) : 0.886<br>
Time code of first frame : 00:59:59;00<br>
Time code source : Group of pictures header<br>
GOP, Open/Closed : Open<br>
GOP, Open/Closed of first frame : Closed<br>
Stream size : 5.17 GiB (85%)<br>
Source : VIDEO_TS/VTS_01_0.IFO<br>
<br>
Audio #1<br>
ID : 189 (0xBD)-128 (0x80)<br>
Format : AC-3<br>
Format/Info : Audio Coding 3<br>
Commercial name : Dolby Digital<br>
Muxing mode : DVD-Video<br>
Duration : 1 h 20 min<br>
Bit rate mode : Constant<br>
Bit rate : 448 kb/s<br>
Channel(s) : 6 channels<br>
Channel layout : L R C LFE Ls Rs<br>
Sampling rate : 48.0 kHz<br>
Frame rate : 31.250 FPS (1536 SPF)<br>
Compression mode : Lossy<br>
Stream size : 258 MiB (4%)<br>
Language : English<br>
Service kind : Complete Main<br>
Source : VIDEO_TS/VTS_01_0.IFO<br>
<br>
Audio #2<br>
ID : 189 (0xBD)-129 (0x81)<br>
Format : AC-3<br>
Format/Info : Audio Coding 3<br>
Commercial name : Dolby Digital<br>
Muxing mode : DVD-Video<br>
Duration : 1 h 20 min<br>
Bit rate mode : Constant<br>
Bit rate : 384 kb/s<br>
Channel(s) : 6 channels<br>
Channel layout : L R C LFE Ls Rs<br>
Sampling rate : 48.0 kHz<br>
Frame rate : 31.250 FPS (1536 SPF)<br>
Compression mode : Lossy<br>
Stream size : 221 MiB (4%)<br>
Language : Spanish<br>
Service kind : Complete Main<br>
Source : VIDEO_TS/VTS_01_0.IFO<br>
<br>
Audio #3<br>
ID : 189 (0xBD)-130 (0x82)<br>
Format : AC-3<br>
Format/Info : Audio Coding 3<br>
Commercial name : Dolby Digital<br>
Muxing mode : DVD-Video<br>
Duration : 1 h 20 min<br>
Bit rate mode : Constant<br>
Bit rate : 384 kb/s<br>
Channel(s) : 6 channels<br>
Channel layout : L R C LFE Ls Rs<br>
Sampling rate : 48.0 kHz<br>
Frame rate : 31.250 FPS (1536 SPF)<br>
Compression mode : Lossy<br>
Stream size : 221 MiB (4%)<br>
Language : French<br>
Service kind : Complete Main<br>
Source : VIDEO_TS/VTS_01_0.IFO<br>
<br>
Text #1<br>
ID : 189 (0xBD)-32 (0x20)<br>
Format : RLE<br>
Format/Info : Run-length encoding<br>
Duration : 1 h 20 min<br>
Bit depth : 2 bits<br>
Language : English<br>
Source : VIDEO_TS/VTS_01_0.IFO<br>
<br>
Text #2<br>
ID : 189 (0xBD)-33 (0x21)<br>
Format : RLE<br>
Format/Info : Run-length encoding<br>
Duration : 1 h 20 min<br>
Bit depth : 2 bits<br>
Language : Spanish<br>
Source : VIDEO_TS/VTS_01_0.IFO<br>
<br>
Text #3<br>
ID : 189 (0xBD)-34 (0x22)<br>
Format : RLE<br>
Format/Info : Run-length encoding<br>
Duration : 1 h 20 min<br>
Bit depth : 2 bits<br>
Language : French<br>
Source : VIDEO_TS/VTS_01_0.IFO<br>
<br>
Menu<br>
Duration : 1 h 20 min<br>
00:00:00.000 : Chapter 1<br>
00:04:13.667 : Chapter 2<br>
00:08:05.200 : Chapter 3<br>
00:11:03.200 : Chapter 4<br>
00:18:15.533 : Chapter 5<br>
00:22:34.033 : Chapter 6<br>
00:28:52.700 : Chapter 7<br>
00:32:09.867 : Chapter 8<br>
00:36:27.200 : Chapter 9<br>
00:40:11.367 : Chapter 10<br>
00:42:18.367 : Chapter 11<br>
00:45:48.000 : Chapter 12<br>
00:49:13.700 : Chapter 13<br>
00:52:01.367 : Chapter 14<br>
00:53:56.367 : Chapter 15<br>
00:59:44.867 : Chapter 16<br>
01:03:32.333 : Chapter 17<br>
01:07:50.833 : Chapter 18<br>
01:10:15.867 : Chapter 19<br>
01:14:01.200 : Chapter 20<br>
01:20:33.700 : Chapter 21<br>
List (Audio) : 0 / 1 / 2<br>
List (Subtitles 4/3) : 0 / 0 / 0<br>
List (Subtitles Wide) : 0 / 1 / 2<br>
List (Subtitles Letterbox) : 0 / 1 / 2<br>
List (Subtitles Pan&amp;Scan) : 0 / 0 / 0<br>
Source : VIDEO_TS/VTS_01_0.IFO</div>
</div>
<div class="messageTextEndMarker">&nbsp;</div>
</blockquote>
</article>]]></description>
                <author><![CDATA[Austin Zimmermann]]></author>
                </item>

                </channel></rss>